<?xml version="1.0" standalone="no"?>
<!DOCTYPE svg PUBLIC "-//W3C//DTD SVG 20010904//EN"
 "http://www.w3.org/TR/2001/REC-SVG-20010904/DTD/svg10.dtd">
<svg version="1.0" xmlns="http://www.w3.org/2000/svg"
 width="512.000000pt" height="512.000000pt" viewBox="0 0 512.000000 512.000000"
 preserveAspectRatio="xMidYMid meet">

<g transform="translate(0.000000,512.000000) scale(0.100000,-0.100000)"
fill="#000000" stroke="none">
<path d="M2730 5074 c-27 -26 -62 -66 -77 -90 l-28 -44 -65 0 c-280 -1 -510
-211 -536 -488 l-6 -68 -87 -33 c-202 -79 -324 -155 -459 -285 -141 -136 -226
-261 -301 -444 -42 -102 -80 -150 -172 -218 -46 -34 -82 -68 -85 -81 -14 -56
31 -112 80 -99 42 10 183 123 231 183 25 32 59 92 76 133 120 288 287 478 526
599 56 28 207 91 218 91 3 0 12 -16 20 -36 26 -62 104 -162 158 -204 205 -154
459 -154 664 0 54 42 132 142 158 204 8 20 17 36 19 36 14 0 152 -58 226 -95
49 -25 96 -45 103 -45 8 0 26 9 41 21 33 26 36 79 6 109 -25 25 -149 87 -261
131 l-87 33 -6 68 c-7 81 -41 178 -85 247 -39 60 -128 144 -182 172 -22 11
-39 24 -39 30 0 5 21 32 47 60 56 60 64 108 24 140 -37 30 -67 24 -121 -27z"/>
<path d="M3591 4023 c-11 -10 -24 -32 -27 -49 -5 -26 1 -39 43 -90 74 -88 109
-144 155 -241 86 -186 99 -209 137 -254 22 -25 140 -119 262 -209 151 -111
232 -178 253 -208 49 -70 68 -128 68 -212 1 -108 -28 -178 -106 -256 -82 -81
-137 -102 -305 -113 -87 -6 -137 -14 -161 -26 -48 -24 -107 -82 -133 -130 -21
-39 -22 -53 -27 -460 -5 -420 -5 -420 -28 -453 -68 -95 -207 -86 -259 18 -22
43 -23 52 -23 376 l0 332 -28 53 c-39 75 -111 119 -194 119 -70 0 -109 -15
-180 -68 -72 -54 -181 -107 -275 -134 -111 -32 -305 -32 -416 0 -102 29 -201
80 -312 160 -165 119 -339 185 -520 197 -44 3 -197 10 -340 14 -316 11 -344
18 -441 115 -78 78 -107 147 -107 258 0 101 39 188 118 265 63 60 71 95 32
131 -41 39 -80 30 -148 -35 -122 -116 -179 -295 -146 -458 9 -43 28 -102 41
-129 l25 -50 -37 -31 c-157 -128 -224 -318 -177 -500 34 -127 126 -245 238
-305 46 -24 48 -28 76 -115 17 -49 114 -349 216 -665 103 -316 201 -601 217
-632 57 -107 183 -201 306 -227 74 -16 2259 -16 2334 0 123 26 249 119 305
226 36 68 203 574 203 615 0 58 -84 93 -123 50 -9 -9 -55 -136 -102 -282 -100
-307 -106 -322 -160 -375 -72 -73 -119 -88 -281 -93 l-142 -4 14 68 c7 38 45
242 84 454 39 212 74 395 77 407 4 16 15 23 46 28 96 16 185 83 229 173 20 41
23 65 26 180 l4 132 208 0 c163 0 208 -3 205 -12 -2 -7 -33 -104 -69 -214 -36
-111 -66 -208 -66 -217 0 -8 9 -26 21 -41 23 -29 72 -36 103 -13 10 8 49 111
100 267 l83 255 59 33 c255 143 330 464 164 701 -38 54 -121 131 -141 131 -4
0 3 25 17 55 43 93 59 197 46 290 -15 100 -64 207 -128 275 -27 28 -137 117
-246 196 -109 80 -213 161 -232 180 -35 36 -38 42 -130 235 -30 63 -81 151
-113 195 -96 128 -143 157 -192 117z m971 -1731 c60 -66 82 -122 83 -217 0
-71 -4 -88 -33 -147 -37 -76 -82 -120 -162 -157 -54 -25 -60 -26 -302 -29
l-248 -4 0 197 c0 285 6 294 202 306 140 9 222 33 306 89 56 38 57 38 85 22
16 -9 47 -36 69 -60z m-3854 34 c109 -73 149 -80 602 -96 201 -7 272 -13 335
-29 103 -27 219 -85 320 -161 98 -73 211 -130 330 -167 83 -25 103 -27 260
-27 157 0 177 2 260 28 117 36 214 82 300 145 79 58 113 64 150 26 24 -23 25
-29 25 -165 l0 -140 -1282 2 -1283 3 -55 26 c-80 37 -125 81 -162 157 -29 59
-33 76 -32 147 0 66 5 90 28 137 27 56 114 148 141 148 7 0 36 -15 63 -34z
m716 -763 c3 -16 58 -309 121 -653 64 -344 122 -656 129 -694 l14 -68 -142 4
c-148 5 -167 9 -243 60 -80 53 -89 75 -298 719 -107 332 -200 616 -205 632
l-9 27 314 0 313 0 6 -27z m660 5 c5 -24 97 -1356 96 -1395 0 -23 0 -23 -169
-23 l-169 0 -6 28 c-3 15 -62 331 -131 702 -69 371 -127 683 -129 693 -4 16
13 17 250 17 l254 0 4 -22z m786 -15 c0 -21 -18 -294 -40 -608 -22 -314 -42
-610 -46 -660 -9 -152 19 -135 -229 -135 -248 0 -220 -17 -229 135 -4 50 -24
346 -46 660 -22 314 -40 587 -40 608 l0 37 315 0 315 0 0 -37z m422 -90 c5
-158 23 -209 105 -283 l55 -50 -87 -468 c-48 -257 -89 -477 -92 -489 -5 -23
-7 -23 -174 -23 -169 0 -169 0 -169 23 -1 39 91 1371 96 1395 4 21 8 22 133
22 l129 0 4 -127z"/>
<path d="M3166 3781 c-25 -27 -32 -117 -13 -163 25 -60 106 -64 134 -8 21 41
16 133 -8 164 -26 33 -86 37 -113 7z"/>
<path d="M2513 3495 c-27 -19 -93 -136 -93 -165 0 -31 44 -70 79 -70 34 0 68
36 107 111 30 61 30 84 -1 114 -27 28 -61 32 -92 10z"/>
<path d="M1799 3440 c-29 -17 -43 -64 -27 -93 17 -32 116 -116 146 -124 52
-13 101 38 88 91 -3 14 -36 50 -72 80 -66 56 -98 67 -135 46z"/>
<path d="M2942 3390 c-39 -37 -30 -82 31 -148 69 -75 77 -81 107 -82 54 0 91
53 71 102 -6 13 -36 51 -69 86 -65 69 -100 79 -140 42z"/>
<path d="M3567 3120 c-35 -28 -89 -138 -81 -164 11 -38 36 -56 74 -56 43 0 56
12 99 96 36 67 33 98 -11 128 -30 21 -50 20 -81 -4z"/>
<path d="M1430 2970 c-28 -28 -26 -81 3 -107 35 -32 112 -73 136 -73 55 0 88
46 70 98 -7 20 -29 40 -72 65 -69 42 -108 46 -137 17z"/>
<path d="M2234 2960 c-23 -9 -87 -94 -98 -128 -12 -38 28 -91 70 -92 44 0 134
103 134 153 0 50 -58 87 -106 67z"/>
<path d="M2820 2810 c-28 -28 -26 -81 3 -108 21 -20 34 -22 121 -22 90 0 99 2
121 25 14 13 25 36 25 50 0 14 -11 37 -25 50 -22 23 -31 25 -125 25 -87 0
-103 -3 -120 -20z"/>
</g>
</svg>
